<svg width="149" height="27" viewBox="0 0 149 27" fill="none" xmlns="http://www.w3.org/2000/svg">
<path d="M1 15.9107L4.87097 10.8214L1 8.78571L7.45161 2L10.3548 5.05357H16.1613V10.8214L21 15.9107L16.1613 21L11.3226 15.9107L6.48387 21L1.64516 15.9107" stroke="white"/>
<path d="M31.31 5.6H37.8C39.428 5.6 40.8727 5.92267 42.134 6.568C43.3953 7.21333 44.3707 8.12267 45.06 9.296C45.764 10.4547 46.116 11.7893 46.116 13.3C46.116 14.8107 45.764 16.1527 45.06 17.326C44.3707 18.4847 43.3953 19.3867 42.134 20.032C40.8727 20.6773 39.428 21 37.8 21H31.31V5.6ZM37.668 19.086C38.9147 19.086 40.0073 18.844 40.946 18.36C41.8993 17.876 42.6327 17.2013 43.146 16.336C43.6593 15.456 43.916 14.444 43.916 13.3C43.916 12.156 43.6593 11.1513 43.146 10.286C42.6327 9.406 41.8993 8.724 40.946 8.24C40.0073 7.756 38.9147 7.514 37.668 7.514H33.51V19.086H37.668ZM51.2018 11.298C51.5684 10.6233 52.1111 10.11 52.8298 9.758C53.5484 9.406 54.4211 9.23 55.4478 9.23V11.276C55.3304 11.2613 55.1691 11.254 54.9638 11.254C53.8198 11.254 52.9178 11.5987 52.2578 12.288C51.6124 12.9627 51.2898 13.9307 51.2898 15.192V21H49.1778V9.34H51.2018V11.298ZM68.4814 15.236C68.4814 15.3973 68.4667 15.61 68.4374 15.874H58.9774C59.1094 16.9007 59.5567 17.7293 60.3194 18.36C61.0967 18.976 62.0574 19.284 63.2014 19.284C64.5947 19.284 65.7167 18.8147 66.5674 17.876L67.7334 19.24C67.2054 19.856 66.5454 20.3253 65.7534 20.648C64.9761 20.9707 64.1034 21.132 63.1354 21.132C61.9034 21.132 60.8107 20.8827 59.8574 20.384C58.9041 19.8707 58.1634 19.1593 57.6354 18.25C57.1221 17.3407 56.8654 16.314 56.8654 15.17C56.8654 14.0407 57.1147 13.0213 57.6134 12.112C58.1267 11.2027 58.8234 10.4987 59.7034 10C60.5981 9.48667 61.6027 9.23 62.7174 9.23C63.8321 9.23 64.8221 9.48667 65.6874 10C66.5674 10.4987 67.2494 11.2027 67.7334 12.112C68.2321 13.0213 68.4814 14.0627 68.4814 15.236ZM62.7174 11.012C61.7054 11.012 60.8547 11.32 60.1654 11.936C59.4907 12.552 59.0947 13.3587 58.9774 14.356H66.4574C66.3401 13.3733 65.9367 12.574 65.2474 11.958C64.5727 11.3273 63.7294 11.012 62.7174 11.012ZM75.3378 9.23C76.9512 9.23 78.1832 9.626 79.0338 10.418C79.8992 11.21 80.3318 12.3907 80.3318 13.96V21H78.3298V19.46C77.9778 20.0027 77.4718 20.4207 76.8118 20.714C76.1665 20.9927 75.3965 21.132 74.5018 21.132C73.1965 21.132 72.1478 20.8167 71.3558 20.186C70.5785 19.5553 70.1898 18.7267 70.1898 17.7C70.1898 16.6733 70.5638 15.852 71.3118 15.236C72.0598 14.6053 73.2478 14.29 74.8758 14.29H78.2198V13.872C78.2198 12.9627 77.9558 12.266 77.4278 11.782C76.8998 11.298 76.1225 11.056 75.0958 11.056C74.4065 11.056 73.7318 11.1733 73.0718 11.408C72.4118 11.628 71.8545 11.9287 71.3998 12.31L70.5198 10.726C71.1212 10.242 71.8398 9.87533 72.6758 9.626C73.5118 9.362 74.3992 9.23 75.3378 9.23ZM74.8538 19.504C75.6605 19.504 76.3572 19.328 76.9438 18.976C77.5305 18.6093 77.9558 18.096 78.2198 17.436V15.808H74.9638C73.1745 15.808 72.2798 16.4093 72.2798 17.612C72.2798 18.1987 72.5072 18.6607 72.9618 18.998C73.4165 19.3353 74.0472 19.504 74.8538 19.504ZM98.8263 9.23C100.293 9.23 101.452 9.65533 102.302 10.506C103.168 11.3567 103.6 12.618 103.6 14.29V21H101.488V14.532C101.488 13.4027 101.224 12.552 100.696 11.98C100.183 11.408 99.4423 11.122 98.4743 11.122C97.4036 11.122 96.5529 11.4593 95.9223 12.134C95.2916 12.794 94.9763 13.7473 94.9763 14.994V21H92.8643V14.532C92.8643 13.4027 92.6003 12.552 92.0723 11.98C91.5589 11.408 90.8183 11.122 89.8503 11.122C88.7796 11.122 87.9289 11.4593 87.2983 12.134C86.6676 12.794 86.3523 13.7473 86.3523 14.994V21H84.2403V9.34H86.2643V11.078C86.6896 10.4767 87.2469 10.022 87.9363 9.714C88.6256 9.39133 89.4103 9.23 90.2903 9.23C91.1996 9.23 92.0063 9.41333 92.7103 9.78C93.4143 10.1467 93.9569 10.682 94.3383 11.386C94.7783 10.7113 95.3869 10.1833 96.1643 9.802C96.9563 9.42067 97.8436 9.23 98.8263 9.23ZM114.68 21.176C113.14 21.176 111.747 20.8387 110.5 20.164C109.268 19.4747 108.3 18.536 107.596 17.348C106.892 16.1453 106.54 14.796 106.54 13.3C106.54 11.804 106.892 10.462 107.596 9.274C108.3 8.07133 109.276 7.13267 110.522 6.458C111.769 5.76867 113.162 5.424 114.702 5.424C115.905 5.424 117.005 5.62933 118.002 6.04C119 6.436 119.85 7.03 120.554 7.822L119.124 9.208C117.966 7.99067 116.521 7.382 114.79 7.382C113.646 7.382 112.612 7.63867 111.688 8.152C110.764 8.66533 110.038 9.37667 109.51 10.286C108.997 11.1807 108.74 12.1853 108.74 13.3C108.74 14.4147 108.997 15.4267 109.51 16.336C110.038 17.2307 110.764 17.9347 111.688 18.448C112.612 18.9613 113.646 19.218 114.79 19.218C116.506 19.218 117.951 18.602 119.124 17.37L120.554 18.756C119.85 19.548 118.992 20.1493 117.98 20.56C116.983 20.9707 115.883 21.176 114.68 21.176ZM123.385 9.34H125.497V21H123.385V9.34ZM124.441 7.096C124.03 7.096 123.685 6.964 123.407 6.7C123.143 6.436 123.011 6.11333 123.011 5.732C123.011 5.35067 123.143 5.028 123.407 4.764C123.685 4.48533 124.03 4.346 124.441 4.346C124.851 4.346 125.189 4.478 125.453 4.742C125.731 4.99133 125.871 5.30667 125.871 5.688C125.871 6.084 125.731 6.42133 125.453 6.7C125.189 6.964 124.851 7.096 124.441 7.096ZM136.085 20.318C135.777 20.582 135.396 20.7873 134.941 20.934C134.487 21.066 134.017 21.132 133.533 21.132C132.36 21.132 131.451 20.8167 130.805 20.186C130.16 19.5553 129.837 18.6533 129.837 17.48V11.078H127.857V9.34H129.837V6.788H131.949V9.34H135.293V11.078H131.949V17.392C131.949 18.0227 132.103 18.5067 132.411 18.844C132.734 19.1813 133.189 19.35 133.775 19.35C134.421 19.35 134.971 19.1667 135.425 18.8L136.085 20.318ZM148.742 9.34L143.088 22.166C142.589 23.354 142.003 24.19 141.328 24.674C140.668 25.158 139.869 25.4 138.93 25.4C138.358 25.4 137.801 25.3047 137.258 25.114C136.73 24.938 136.29 24.674 135.938 24.322L136.84 22.738C137.441 23.31 138.138 23.596 138.93 23.596C139.443 23.596 139.869 23.4567 140.206 23.178C140.558 22.914 140.873 22.452 141.152 21.792L141.526 20.978L136.378 9.34H138.578L142.648 18.668L146.674 9.34H148.742Z" fill="white"/>
</svg>
